<svg width="527" height="527" viewBox="0 0 527 527" fill="none" xmlns="http://www.w3.org/2000/svg">
<mask id="mask0" mask-type="alpha" maskUnits="userSpaceOnUse" x="11" y="0" width="479" height="486">
<path fill-rule="evenodd" clip-rule="evenodd" d="M11.4839 242.517C11.4839 376.452 118.472 485.035 250.45 485.035C382.425 485.035 489.416 376.452 489.416 242.517C489.416 108.577 382.425 0 250.45 0C118.472 0 11.4839 108.577 11.4839 242.517Z" fill="white"/>
</mask>
<g mask="url(#mask0)">
<path d="M247.5 492C386.4 492 499 380.519 499 243C499 105.481 386.4 -6 247.5 -6C108.6 -6 -4 105.481 -4 243C-4 380.519 108.6 492 247.5 492Z" fill="white"/>
<path fill-rule="evenodd" clip-rule="evenodd" d="M250.998 141.372C251.006 141.385 251.046 141.289 251.089 141.185C251.133 141.289 251.172 141.385 251.181 141.372C251.459 141.889 288.477 25.3815 377.025 -12.0103C348.123 -25.4706 316.666 -34.9901 284.362 -38.6963C273.947 -39.8912 263.077 -40.4516 251.928 -40.3995C251.654 -40.3995 251.68 -40.3908 251.411 -40.3908C251.172 -40.3908 251.241 -40.3951 251.089 -40.3951C250.937 -40.3951 251.006 -40.3908 250.767 -40.3908C250.498 -40.3908 250.525 -40.3995 250.251 -40.3995C239.102 -40.4516 228.231 -39.8912 217.816 -38.6963C185.513 -34.9901 154.056 -25.4706 125.154 -12.0103C213.702 25.3815 250.72 141.889 250.998 141.372Z" fill="#363942"/>
<path fill-rule="evenodd" clip-rule="evenodd" d="M129.525 113.492C129.525 113.492 213.715 127.091 237.447 142.985C234.292 109.604 160.204 15.2854 104.26 -1.33801C58.1693 24.2618 20.4343 59.6117 -0.885864 96.0084C8.40342 95.3696 17.5059 94.7916 20.3474 94.6657C60.4241 92.841 98.6154 93.8054 129.525 113.492Z" fill="#363942"/>
<path fill-rule="evenodd" clip-rule="evenodd" d="M151.36 297.998C143.361 281.327 127.654 234.58 111.856 184.428C111.848 184.549 111.839 184.658 111.83 184.723C79.8608 187.321 52.6968 187.708 24.4857 202.046C1.87074 213.542 -9.92551 229.262 -22.5212 245.325C-21.7392 253.381 -20.7572 260.497 -19.6797 266.215C-6.47572 336.215 28.9001 393.976 80.5688 447.73C80.5688 383.734 105.408 335.902 151.36 297.998Z" fill="#363942"/>
<path fill-rule="evenodd" clip-rule="evenodd" d="M150.982 201.113C148.071 215.078 159.663 221.347 168.361 225.735C174.413 228.785 187.726 228.086 195.877 232.974C200.769 235.911 208.885 248.55 212.079 257.596C212.262 257.366 208.19 214.148 208.19 214.148C208.19 214.148 151.086 200.605 150.982 201.113Z" fill="#363942"/>
<path fill-rule="evenodd" clip-rule="evenodd" d="M109.79 171.676C112.232 155.243 120.11 135.014 125.149 123.248L125.128 123.3C125.128 123.3 106.784 113.298 76.1785 110.478C37.7962 106.941 2.20755 115.166 -12.0957 119.12C-12.717 120.75 -13.3557 122.383 -13.9118 124.008C-21.4545 146.149 -24.2265 175.695 -24.3612 203.21C-14.6331 197.262 -4.47047 191.771 6.34387 187.052C39.4255 172.61 72.7941 169.803 109.79 171.676Z" fill="#363942"/>
<path fill-rule="evenodd" clip-rule="evenodd" d="M264.733 142.986C288.464 127.092 372.654 113.493 372.654 113.493C403.563 93.8067 441.755 92.8379 481.831 94.6625C484.672 94.793 493.78 95.371 503.066 96.0052C481.746 59.6126 444.01 24.2629 397.92 -1.33691C341.975 15.2865 267.887 109.604 264.733 142.986Z" fill="#363942"/>
<path fill-rule="evenodd" clip-rule="evenodd" d="M353.658 319.781C352.893 318.978 352.133 318.178 351.372 317.379C350.999 317.67 350.629 317.961 350.256 318.252C350.886 319.282 351.516 320.307 352.141 321.337C353.78 327.832 355.739 334.263 357.008 340.828C361.713 365.12 344.412 402.425 344.412 402.425C344.412 402.425 309.493 410.91 291.126 407.561C281.177 405.749 253.895 403.146 253.895 398.441C253.895 384.32 255.343 378.711 260.956 367.305C264.454 360.197 290.366 356.413 298.974 353.18C307.663 349.922 313.772 337.66 310.379 332.907C300.242 335.441 291.553 345.759 251.906 346.12C251.619 346.124 251.376 346.116 251.093 346.12C250.806 346.116 250.559 346.124 250.277 346.12C210.63 345.759 201.94 335.441 191.799 332.907C188.406 337.66 194.515 349.922 203.204 353.18C211.816 356.413 237.724 360.197 241.222 367.305C246.835 378.711 248.282 384.32 248.282 398.441C248.282 403.146 221.001 405.749 211.051 407.561C192.686 410.91 157.766 402.425 157.766 402.425C157.766 402.425 140.464 365.12 145.17 340.828C146.443 334.263 148.398 327.832 150.037 321.337C150.662 320.307 151.297 319.282 151.922 318.252C151.549 317.961 151.179 317.67 150.805 317.379C150.045 318.178 149.285 318.978 148.52 319.781C107.257 352.368 93.0883 409.585 113.418 458.78C123.689 483.642 141.677 502.585 159.13 522.082L234.04 521.863C222.348 501.33 200.715 481.618 191.169 459.995C184.882 445.756 190.713 415.46 191.078 416.181C204.469 418.505 235.239 421.507 251.093 421.929C266.939 421.507 297.709 418.505 311.104 416.181C311.465 415.46 317.296 445.756 311.013 459.995C301.463 481.618 279.83 501.33 268.138 521.863L343.052 522.082C360.501 502.585 378.489 483.642 388.76 458.78C409.089 409.585 394.921 352.368 353.658 319.781Z" fill="#363942"/>
<path fill-rule="evenodd" clip-rule="evenodd" d="M477.695 202.044C449.483 187.706 422.319 187.323 390.345 184.721C390.341 184.66 390.332 184.551 390.323 184.43C374.525 234.583 358.819 281.324 350.82 297.995C396.771 335.904 421.61 383.732 421.61 447.73C473.273 393.977 508.654 336.217 521.857 266.213C522.938 260.495 523.921 253.383 524.698 245.327C512.106 229.26 500.31 213.541 477.695 202.044Z" fill="#363942"/>
<path fill-rule="evenodd" clip-rule="evenodd" d="M293.988 214.148C293.988 214.148 289.921 257.366 290.1 257.596C293.293 248.55 301.409 235.911 306.302 232.974C314.457 228.086 327.769 228.785 333.818 225.735C342.516 221.347 354.108 215.078 351.197 201.113C351.092 200.605 293.988 214.148 293.988 214.148Z" fill="#363942"/>
<path fill-rule="evenodd" clip-rule="evenodd" d="M426.001 110.478C395.396 113.298 377.048 123.3 377.048 123.3L377.03 123.248C382.07 135.014 389.952 155.243 392.389 171.676C429.381 169.803 462.754 172.61 495.83 187.052C506.648 191.771 516.81 197.262 526.543 203.21C526.404 175.695 523.635 146.149 516.086 124.008C515.532 122.383 514.902 120.75 514.273 119.12C499.966 115.166 464.384 106.941 426.001 110.478Z" fill="#363942"/>
</g>
<mask id="mask1" mask-type="alpha" maskUnits="userSpaceOnUse" x="358" y="309" width="158" height="218">
<path d="M456.75 309H372.813C364.666 309 358 315.666 358 323.813V511.437C358 519.584 364.666 526.25 372.813 526.25H501.187C509.334 526.25 516 519.584 516 511.437V368.25L456.75 309Z" fill="white"/>
</mask>
<g mask="url(#mask1)">
<path d="M456.75 309H372.813C364.666 309 358 315.666 358 323.813V511.437C358 519.584 364.666 526.25 372.813 526.25H501.187C509.334 526.25 516 519.584 516 511.437V368.25L481.438 343.563L456.75 309Z" fill="#0F9D58"/>
</g>
<mask id="mask2" mask-type="alpha" maskUnits="userSpaceOnUse" x="358" y="309" width="158" height="218">
<path d="M456.75 309H372.813C364.666 309 358 315.666 358 323.813V511.437C358 519.584 364.666 526.25 372.813 526.25H501.187C509.334 526.25 516 519.584 516 511.437V368.25L456.75 309Z" fill="white"/>
</mask>
<g mask="url(#mask2)">
<path d="M393 412V487H481V412H393ZM431.5 476.655H404V463.724H431.5V476.655ZM431.5 455.966H404V443.034H431.5V455.966ZM431.5 435.276H404V422.345H431.5V435.276ZM470 476.655H442.5V463.724H470V476.655ZM470 455.966H442.5V443.034H470V455.966ZM470 435.276H442.5V422.345H470V435.276Z" fill="#F1F1F1"/>
</g>
<mask id="mask3" mask-type="alpha" maskUnits="userSpaceOnUse" x="358" y="309" width="158" height="218">
<path d="M456.75 309H372.813C364.666 309 358 315.666 358 323.813V511.437C358 519.584 364.666 526.25 372.813 526.25H501.187C509.334 526.25 516 519.584 516 511.437V368.25L456.75 309Z" fill="white"/>
</mask>
<g mask="url(#mask3)">
<path d="M461.083 363.917L516 418.822V368.25L461.083 363.917Z" fill="url(#paint0_linear)"/>
</g>
<mask id="mask4" mask-type="alpha" maskUnits="userSpaceOnUse" x="358" y="309" width="158" height="218">
<path d="M456.75 309H372.813C364.666 309 358 315.666 358 323.813V511.437C358 519.584 364.666 526.25 372.813 526.25H501.187C509.334 526.25 516 519.584 516 511.437V368.25L456.75 309Z" fill="white"/>
</mask>
<g mask="url(#mask4)">
<path d="M456.75 309V353.438C456.75 361.621 463.379 368.25 471.563 368.25H516L456.75 309Z" fill="#87CEAC"/>
</g>
<mask id="mask5" mask-type="alpha" maskUnits="userSpaceOnUse" x="358" y="309" width="158" height="218">
<path d="M456.75 309H372.813C364.666 309 358 315.666 358 323.813V511.437C358 519.584 364.666 526.25 372.813 526.25H501.187C509.334 526.25 516 519.584 516 511.437V368.25L456.75 309Z" fill="white"/>
</mask>
<g mask="url(#mask5)">
<path d="M372.813 309C364.666 309 358 315.666 358 323.813V325.047C358 316.9 364.666 310.234 372.813 310.234H456.75V309H372.813Z" fill="white" fill-opacity="0.2"/>
</g>
<mask id="mask6" mask-type="alpha" maskUnits="userSpaceOnUse" x="358" y="309" width="158" height="218">
<path d="M456.75 309H372.813C364.666 309 358 315.666 358 323.813V511.437C358 519.584 364.666 526.25 372.813 526.25H501.187C509.334 526.25 516 519.584 516 511.437V368.25L456.75 309Z" fill="white"/>
</mask>
<g mask="url(#mask6)">
<path d="M501.187 525.016H372.813C364.666 525.016 358 518.35 358 510.203V511.437C358 519.584 364.666 526.25 372.813 526.25H501.187C509.334 526.25 516 519.584 516 511.437V510.203C516 518.35 509.334 525.016 501.187 525.016Z" fill="#263238" fill-opacity="0.2"/>
</g>
<mask id="mask7" mask-type="alpha" maskUnits="userSpaceOnUse" x="358" y="309" width="158" height="218">
<path d="M456.75 309H372.813C364.666 309 358 315.666 358 323.813V511.437C358 519.584 364.666 526.25 372.813 526.25H501.187C509.334 526.25 516 519.584 516 511.437V368.25L456.75 309Z" fill="white"/>
</mask>
<g mask="url(#mask7)">
<path d="M471.563 368.25C463.379 368.25 456.75 361.621 456.75 353.438V354.672C456.75 362.856 463.379 369.484 471.563 369.484H516V368.25H471.563Z" fill="#263238" fill-opacity="0.1"/>
</g>
<path d="M456.75 309H372.812C364.666 309 358 315.666 358 323.812V511.438C358 519.584 364.666 526.25 372.812 526.25H501.188C509.334 526.25 516 519.584 516 511.438V368.25L456.75 309Z" fill="url(#paint1_radial)"/>
<defs>
<linearGradient id="paint0_linear" x1="488.544" y1="368.632" x2="488.544" y2="418.83" gradientUnits="userSpaceOnUse">
<stop stop-color="#263238" stop-opacity="0.2"/>
<stop offset="1" stop-color="#263238" stop-opacity="0.02"/>
</linearGradient>
<radialGradient id="paint1_radial" cx="0" cy="0" r="1" gradientUnits="userSpaceOnUse" gradientTransform="translate(363.006 313.318) scale(254.773 254.773)">
<stop stop-color="white" stop-opacity="0.1"/>
<stop offset="1" stop-color="white" stop-opacity="0"/>
</radialGradient>
</defs>
</svg>
