<svg xmlns="http://www.w3.org/2000/svg" viewBox="-5.354 114.305 384.146 94.497" width="384.146" height="94.497">
    <g transform="matrix(1.245858, 0, 0, 1.245858, -91.74353, 26.136837)" style="">
        <path fill-rule="evenodd" clip-rule="evenodd" d="M 331.387 111.99 L 321.56 111.99 L 321.56 105.396 L 331.387 105.396 L 331.387 111.99 Z M 331.387 121.883 L 321.56 121.883 L 321.56 115.288 L 331.387 115.288 L 331.387 121.883 Z M 344.488 121.883 L 334.662 121.883 L 334.662 115.288 L 344.488 115.288 L 344.488 121.883 Z M 331.387 131.774 L 321.56 131.774 L 321.56 125.18 L 331.387 125.18 L 331.387 131.774 Z M 344.488 131.774 L 334.662 131.774 L 334.662 125.18 L 344.488 125.18 L 344.488 131.774 Z" fill="#007E8F" style=""/>
        <path fill-rule="evenodd" clip-rule="evenodd" d="M 344.488 75.721 L 318.284 75.721 C 316.547 75.721 314.881 76.416 313.652 77.652 C 312.424 78.889 311.734 80.567 311.734 82.315 L 311.734 135.071 C 311.734 136.82 312.424 138.498 313.652 139.735 C 314.881 140.971 316.547 141.666 318.284 141.666 L 357.589 141.666 C 359.327 141.666 360.994 140.971 362.222 139.735 C 363.451 138.498 364.141 136.82 364.141 135.071 L 364.141 95.504 L 344.488 75.721 Z M 318.284 135.071 L 357.589 135.071 L 357.589 98.802 L 341.213 98.802 L 341.213 82.315 L 318.284 82.315 L 318.284 135.071 Z" fill="#007E8F" style=""/>
        <path d="M 344.488 111.99 L 334.662 111.99 L 334.662 105.396 L 344.488 105.396 L 344.488 111.99 Z" fill="#007E8F" style=""/>
        <path fill-rule="evenodd" clip-rule="evenodd" d="M 357.589 135.071 L 318.284 135.071 L 318.284 82.315 L 341.213 82.315 L 341.213 98.802 L 357.589 98.802 L 357.589 135.071 Z M 321.56 111.99 L 331.387 111.99 L 331.387 105.396 L 321.56 105.396 L 321.56 111.99 Z M 334.662 111.99 L 344.488 111.99 L 344.488 105.396 L 334.662 105.396 L 334.662 111.99 Z M 321.56 121.883 L 331.387 121.883 L 331.387 115.288 L 321.56 115.288 L 321.56 121.883 Z M 334.662 121.883 L 344.488 121.883 L 344.488 115.288 L 334.662 115.288 L 334.662 121.883 Z M 321.56 131.774 L 331.387 131.774 L 331.387 125.18 L 321.56 125.18 L 321.56 131.774 Z M 334.662 131.774 L 344.488 131.774 L 344.488 125.18 L 334.662 125.18 L 334.662 131.774 Z" fill="white" style=""/>
    </g>
    <g transform="matrix(1, 0, 0, 1, -16.734261, 52.742504)">
        <path fill-rule="evenodd" clip-rule="evenodd" d="M 50.673 131.584 C 55.766 131.584 60.457 129.884 64.196 127.018 L 64.196 130.74 L 75.36 130.74 L 75.36 88.681 L 64.196 88.681 L 64.196 92.403 C 60.457 89.537 55.766 87.837 50.673 87.837 C 38.455 87.837 28.557 97.626 28.557 109.711 C 28.557 121.795 38.455 131.584 50.673 131.584 Z M 52.329 120.567 C 58.275 120.567 63.092 115.802 63.092 109.921 C 63.092 104.041 58.275 99.276 52.329 99.276 C 46.383 99.276 41.566 104.041 41.566 109.921 C 41.566 115.802 46.383 120.567 52.329 120.567 Z" fill="#030B24"/>
        <path fill-rule="evenodd" clip-rule="evenodd" d="M 275.443 132.366 C 287.661 132.366 297.559 122.577 297.559 110.493 C 297.559 98.408 287.661 88.619 275.443 88.619 C 263.225 88.619 253.328 98.408 253.328 110.493 C 253.328 122.577 263.225 132.366 275.443 132.366 Z M 275.305 121.001 C 281.251 121.001 286.068 116.237 286.068 110.356 C 286.068 104.475 281.251 99.711 275.305 99.711 C 269.359 99.711 264.542 104.475 264.542 110.356 C 264.542 116.237 269.359 121.001 275.305 121.001 Z" fill="#030B24"/>
        <path fill-rule="evenodd" clip-rule="evenodd" d="M 155.896 131.584 C 160.989 131.584 165.681 129.884 169.419 127.018 L 169.419 130.74 L 180.583 130.74 L 180.583 88.681 L 169.419 88.681 L 169.419 92.403 C 165.681 89.537 160.989 87.837 155.896 87.837 C 143.678 87.837 133.78 97.626 133.78 109.711 C 133.78 121.795 143.678 131.584 155.896 131.584 Z M 157.313 120.567 C 163.259 120.567 168.076 115.802 168.076 109.921 C 168.076 104.041 163.259 99.276 157.313 99.276 C 151.367 99.276 146.55 104.041 146.55 109.921 C 146.55 115.802 151.367 120.567 157.313 120.567 Z" fill="#030B24"/>
        <path fill-rule="evenodd" clip-rule="evenodd" d="M 94.265 146.882 L 83.1 149.859 L 83.1 88.681 L 94.265 88.681 L 94.265 92.403 C 98.003 89.537 102.695 87.837 107.788 87.837 C 120.006 87.837 129.903 97.626 129.903 109.711 C 129.903 121.795 120.006 131.584 107.788 131.584 C 102.695 131.584 98.003 129.884 94.265 127.018 L 94.265 146.882 Z M 106.169 99.276 C 100.223 99.276 95.406 104.041 95.406 109.921 C 95.406 115.802 100.223 120.567 106.169 120.567 C 112.115 120.567 116.932 115.802 116.932 109.921 C 116.932 104.041 112.115 99.276 106.169 99.276 Z" fill="#030B24"/>
        <path d="M 188.269 70.753 L 199.483 67.763 L 199.483 130.778 L 188.269 130.778 L 188.269 70.753 Z" fill="#030B24"/>
        <path fill-rule="evenodd" clip-rule="evenodd" d="M 233.05 130.766 C 240.125 128.892 245.444 123.756 247.79 117.428 L 236.65 114.476 C 235.371 117.155 233.025 119.24 230.002 120.046 C 225.411 121.262 220.669 119.128 218.223 115.121 L 237.717 109.959 L 248.881 107.007 C 248.756 106.175 248.593 105.356 248.367 104.525 C 245.268 93.086 233.389 86.312 221.823 89.376 C 210.257 92.441 203.408 104.19 206.506 115.629 C 209.605 127.069 221.484 133.843 233.05 130.778 L 233.05 130.766 Z M 235.509 102.739 C 233.163 99.339 229.212 97.59 224.269 98.83 C 219.314 100.083 216.793 103.619 216.504 107.776 L 235.521 102.739 L 235.509 102.739 Z" fill="#030B24"/>
    </g>
</svg>