<svg width="120" height="120" viewBox="0 0 120 120" fill="none" xmlns="http://www.w3.org/2000/svg">
<mask id="mask0" mask-type="alpha" maskUnits="userSpaceOnUse" x="2" y="2" width="105" height="107">
<path fill-rule="evenodd" clip-rule="evenodd" d="M2.49249 55.6111C2.49249 84.6804 25.7131 108.247 54.3578 108.247C83.0016 108.247 106.223 84.6804 106.223 55.6111C106.223 26.5408 83.0016 2.97522 54.3578 2.97522C25.7131 2.97522 2.49249 26.5408 2.49249 55.6111Z" fill="white"/>
</mask>
<g mask="url(#mask0)">
<path d="M53.7175 109.759C83.8643 109.759 108.303 85.5631 108.303 55.716C108.303 25.8689 83.8643 1.67297 53.7175 1.67297C23.5707 1.67297 -0.868134 25.8689 -0.868134 55.716C-0.868134 85.5631 23.5707 109.759 53.7175 109.759Z" fill="white"/>
<path fill-rule="evenodd" clip-rule="evenodd" d="M54.4767 33.6586C54.4785 33.6614 54.487 33.6406 54.4964 33.618C54.5059 33.6406 54.5144 33.6614 54.5163 33.6586C54.5766 33.7707 62.6111 8.48403 81.8295 0.368504C75.5567 -2.55292 68.7293 -4.61905 61.718 -5.42344C59.4576 -5.68277 57.0982 -5.80442 54.6785 -5.7931C54.6191 -5.7931 54.6247 -5.79121 54.5662 -5.79121C54.5144 -5.79121 54.5295 -5.79215 54.4964 -5.79215C54.4635 -5.79215 54.4785 -5.79121 54.4266 -5.79121C54.3682 -5.79121 54.3739 -5.7931 54.3145 -5.7931C51.8947 -5.80442 49.5353 -5.68277 47.2749 -5.42344C40.2637 -4.61905 33.4363 -2.55292 27.1634 0.368504C46.3819 8.48403 54.4163 33.7707 54.4767 33.6586Z" fill="#363942"/>
<path fill-rule="evenodd" clip-rule="evenodd" d="M28.1121 27.6075C28.1121 27.6075 46.3847 30.5592 51.5354 34.0087C50.8508 26.7636 34.7706 6.29275 22.6285 2.68481C12.6251 8.24101 4.43504 15.9134 -0.192291 23.8129C1.82386 23.6743 3.79945 23.5488 4.41618 23.5215C13.1144 23.1255 21.4035 23.3348 28.1121 27.6075Z" fill="#363942"/>
<path fill-rule="evenodd" clip-rule="evenodd" d="M32.8511 67.6526C31.115 64.0344 27.7061 53.8885 24.2772 43.0034C24.2754 43.0298 24.2735 43.0533 24.2716 43.0675C17.333 43.6314 11.4373 43.7154 5.31435 46.8273C0.406007 49.3225 -2.15425 52.7343 -4.88803 56.2205C-4.71829 57.9689 -4.50517 59.5136 -4.27131 60.7545C-1.40551 75.9473 6.27246 88.4837 17.4866 100.15C17.4866 86.261 22.8778 75.8794 32.8511 67.6526Z" fill="#363942"/>
<path fill-rule="evenodd" clip-rule="evenodd" d="M32.7691 46.6248C32.1373 49.6557 34.6532 51.0164 36.5411 51.9689C37.8547 52.6308 40.7441 52.479 42.5132 53.54C43.575 54.1774 45.3365 56.9206 46.0297 58.8839C46.0693 58.8339 45.1857 49.4538 45.1857 49.4538C45.1857 49.4538 32.7918 46.5145 32.7691 46.6248Z" fill="#363942"/>
<path fill-rule="evenodd" clip-rule="evenodd" d="M23.8288 40.2357C24.3588 36.6692 26.0686 32.2786 27.1624 29.725L27.1577 29.7362C27.1577 29.7362 23.1763 27.5654 16.5338 26.9534C8.20327 26.1858 0.479103 27.971 -2.62528 28.8291C-2.76013 29.1828 -2.89875 29.5373 -3.01945 29.89C-4.65651 34.6955 -5.25815 41.108 -5.28738 47.08C-3.17599 45.7891 -0.970296 44.5972 1.37685 43.573C8.5569 40.4384 15.7992 39.8292 23.8288 40.2357Z" fill="#363942"/>
<path fill-rule="evenodd" clip-rule="evenodd" d="M57.4576 34.0089C62.6083 30.5594 80.881 27.6078 80.881 27.6078C87.5894 23.3351 95.8785 23.1248 104.577 23.5208C105.193 23.5491 107.17 23.6746 109.185 23.8122C104.558 15.9136 96.368 8.24125 86.3645 2.68506C74.2223 6.293 58.1422 26.7638 57.4576 34.0089Z" fill="#363942"/>
<path fill-rule="evenodd" clip-rule="evenodd" d="M76.7579 72.3806C76.5919 72.2062 76.4269 72.0327 76.2619 71.8591C76.1808 71.9223 76.1006 71.9855 76.0195 72.0487C76.1562 72.2722 76.293 72.4948 76.4288 72.7183C76.7843 74.128 77.2096 75.5237 77.485 76.9485C78.5063 82.221 74.7512 90.3176 74.7512 90.3176C74.7512 90.3176 67.1723 92.1593 63.1861 91.4323C61.0267 91.039 55.1055 90.4742 55.1055 89.4528C55.1055 86.388 55.4196 85.1707 56.6379 82.6952C57.3971 81.1525 63.0211 80.3311 64.8892 79.6295C66.7752 78.9223 68.1011 76.2611 67.3646 75.2295C65.1646 75.7793 63.2786 78.0189 54.6736 78.0971C54.6114 78.0981 54.5586 78.0963 54.4973 78.0971C54.435 78.0963 54.3813 78.0981 54.3201 78.0971C45.7151 78.0189 43.8291 75.7793 41.6281 75.2295C40.8916 76.2611 42.2175 78.9223 44.1035 79.6295C45.9725 80.3311 51.5956 81.1525 52.3548 82.6952C53.5732 85.1707 53.8872 86.388 53.8872 89.4528C53.8872 90.4742 47.966 91.039 45.8066 91.4323C41.8205 92.1593 34.2415 90.3176 34.2415 90.3176C34.2415 90.3176 30.4864 82.221 31.5077 76.9485C31.784 75.5237 32.2083 74.128 32.5639 72.7183C32.6997 72.4948 32.8374 72.2722 32.9731 72.0487C32.8921 71.9855 32.8119 71.9223 32.7308 71.8591C32.5658 72.0327 32.4008 72.2062 32.2348 72.3806C23.2791 79.4532 20.2039 91.8717 24.6162 102.549C26.8455 107.945 30.7495 112.056 34.5376 116.288L50.796 116.24C48.2584 111.784 43.5632 107.506 41.4914 102.813C40.1268 99.7222 41.3923 93.1466 41.4715 93.3032C44.3779 93.8077 51.0562 94.4593 54.4973 94.5508C57.9365 94.4593 64.6148 93.8077 67.5221 93.3032C67.6004 93.1466 68.8659 99.7222 67.5023 102.813C65.4296 107.506 60.7343 111.784 58.1967 116.24L74.456 116.288C78.2432 112.056 82.1472 107.945 84.3765 102.549C88.7888 91.8717 85.7136 79.4532 76.7579 72.3806Z" fill="#363942"/>
<path fill-rule="evenodd" clip-rule="evenodd" d="M103.679 46.8268C97.5558 43.7149 91.6602 43.6319 84.7206 43.0671C84.7196 43.0538 84.7178 43.0303 84.7158 43.0039C81.2871 53.889 77.8781 64.0339 76.142 67.6522C86.1153 75.88 91.5064 86.2605 91.5064 100.151C102.719 88.4841 110.398 75.9478 113.264 60.7541C113.499 59.5131 113.712 57.9694 113.881 56.221C111.148 52.7338 108.587 49.3221 103.679 46.8268Z" fill="#363942"/>
<path fill-rule="evenodd" clip-rule="evenodd" d="M63.8073 49.4538C63.8073 49.4538 62.9246 58.8339 62.9633 58.8839C63.6564 56.9206 65.4179 54.1774 66.4798 53.54C68.2498 52.479 71.1391 52.6308 72.4519 51.9689C74.3398 51.0164 76.8557 49.6557 76.2239 46.6248C76.2012 46.5145 63.8073 49.4538 63.8073 49.4538Z" fill="#363942"/>
<path fill-rule="evenodd" clip-rule="evenodd" d="M92.4593 26.9534C85.8169 27.5654 81.8345 29.7362 81.8345 29.7362L81.8307 29.725C82.9246 32.2786 84.6352 36.6692 85.1642 40.2357C93.193 39.8292 100.436 40.4384 107.615 43.573C109.963 44.5972 112.168 45.7891 114.281 47.08C114.251 41.108 113.65 34.6955 112.011 29.89C111.891 29.5373 111.754 29.1828 111.618 28.8291C108.513 27.971 100.79 26.1858 92.4593 26.9534Z" fill="#363942"/>
</g>
<g clip-path="url(#clip0)">
<path fill-rule="evenodd" clip-rule="evenodd" d="M95.2066 93.5703H87.7686V88.5785H95.2066V93.5703ZM95.2066 101.058H87.7686V96.0661H95.2066V101.058ZM105.124 101.058H97.6859V96.0661H105.124V101.058ZM95.2066 108.545H87.7686V103.554H95.2066V108.545ZM105.124 108.545H97.6859V103.554H105.124V108.545Z" fill="#007E8F"/>
<path fill-rule="evenodd" clip-rule="evenodd" d="M105.124 66.1157H85.2892C83.9741 66.1157 82.7129 66.6416 81.7829 67.5778C80.853 68.5139 80.3306 69.7836 80.3306 71.1075V111.041C80.3306 112.365 80.853 113.635 81.7829 114.571C82.7129 115.507 83.9741 116.033 85.2892 116.033H115.041C116.356 116.033 117.618 115.507 118.548 114.571C119.478 113.635 120 112.365 120 111.041V81.0909L105.124 66.1157ZM85.2892 111.041H115.041V83.5868H102.645V71.1075H85.2892V111.041Z" fill="#007E8F"/>
<path d="M105.124 93.5703H97.6859V88.5785H105.124V93.5703Z" fill="#007E8F"/>
<path fill-rule="evenodd" clip-rule="evenodd" d="M115.041 111.041H85.2892V71.1075H102.645V83.5868H115.041V111.041ZM87.7686 93.5703H95.2066V88.5785H87.7686V93.5703ZM97.6859 93.5703H105.124V88.5785H97.6859V93.5703ZM87.7686 101.058H95.2066V96.0661H87.7686V101.058ZM97.6859 101.058H105.124V96.0661H97.6859V101.058ZM87.7686 108.545H95.2066V103.554H87.7686V108.545ZM97.6859 108.545H105.124V103.554H97.6859V108.545Z" fill="white"/>
</g>
<defs>
<clipPath id="clip0">
<rect width="39.6694" height="49.9174" fill="white" transform="translate(80.3306 66.1157)"/>
</clipPath>
</defs>
</svg>
